<svg width="21" height="21" viewBox="0 0 21 21" fill="none" xmlns="http://www.w3.org/2000/svg">
<path d="M10.3623 19.5866C10.4542 19.5866 10.5362 19.5499 10.5963 19.4898C10.6564 19.4297 10.6932 19.3476 10.6932 19.2557L10.6932 10.6926L19.2563 10.6926C19.3482 10.6926 19.4302 10.6559 19.4903 10.5958C19.5504 10.5357 19.5872 10.4536 19.5872 10.3617C19.5872 10.1793 19.4387 10.0308 19.2563 10.0308L10.6932 10.0308L10.6932 1.46772C10.6932 1.28529 10.5447 1.1368 10.3623 1.1368C10.1798 1.1368 10.0313 1.28529 10.0313 1.46772L10.0313 10.0308L1.46828 10.0308C1.28585 10.0308 1.13736 10.1793 1.13736 10.3617C1.13736 10.5441 1.28585 10.6926 1.46828 10.6926L10.0313 10.6926L10.0313 19.2557C10.0313 19.4396 10.1791 19.5873 10.3623 19.5866Z" fill="white" stroke="white" stroke-width="0.5"/>
</svg>
