<svg width="35" height="35" viewBox="0 0 35 35" fill="none" xmlns="http://www.w3.org/2000/svg">
<path d="M34.1427 15.1104L30.2181 14.0408C30.1729 14.0247 30.0878 13.946 30.0553 13.8673L29.0172 11.3972C28.9991 11.3543 29.0045 11.2416 29.0226 11.204L31.0573 7.70186C31.2996 7.28511 31.2472 6.71453 30.9325 6.34607C30.9108 6.32103 30.4062 5.73436 29.9594 5.29257C29.5145 4.8472 28.9177 4.34459 28.896 4.32492C28.5415 4.02264 27.9302 3.96361 27.5233 4.19256L23.982 6.18152C23.9639 6.18867 23.8409 6.21193 23.7487 6.17079L21.2492 5.14054C21.204 5.12265 21.1244 5.03679 21.1118 4.99923L20.0465 0.983749C19.9326 0.57594 19.5148 0 18.9396 0H16.1472C15.5702 0 15.1506 0.570574 15.0367 0.976594L13.9551 4.91517C13.9389 4.96704 13.8557 5.06899 13.7761 5.10476L11.273 6.14217C11.2567 6.14933 11.0849 6.14575 11.0759 6.14217L7.54005 4.1389C7.13492 3.90817 6.52723 3.96361 6.16913 4.26053C6.14381 4.28199 5.55059 4.77923 5.10929 5.22281C4.64991 5.66818 4.1435 6.25843 4.11818 6.28705C3.81253 6.65193 3.75827 7.21893 3.99519 7.63747L6.00816 11.1378C6.02987 11.179 6.03348 11.2934 6.00093 11.3703L4.95013 13.8476C4.93205 13.8887 4.85247 13.9639 4.80545 13.98L0.882596 15.0335C0.408743 15.1551 0.0325548 15.613 0.00542583 16.1299L0 18.913C0.0217032 19.396 0.392466 19.8556 0.862702 19.9844L4.78555 21.0558C4.82896 21.0719 4.91215 21.1488 4.94471 21.2293L5.98646 23.7066C6.00455 23.7495 6.00093 23.8586 5.98104 23.8962L3.94274 27.4001C3.7022 27.8168 3.75465 28.3856 4.06935 28.7559C4.09105 28.7809 4.59384 29.364 5.0478 29.8273C5.49271 30.2548 6.0787 30.7538 6.1004 30.7717C6.45489 31.0775 7.068 31.1348 7.47132 30.904L11.0126 28.9186C11.0361 28.9061 11.1645 28.8847 11.2531 28.924L13.758 29.9596C13.8014 29.9775 13.8792 30.0598 13.8937 30.0974L14.9517 34.061C15.0692 34.5063 15.516 35 16.0585 35H18.851C19.3882 35 19.8367 34.5117 19.9615 34.0717L21.0485 30.1528C21.0647 30.1081 21.1425 30.0151 21.2275 29.9793L23.727 28.9455C23.7451 28.9383 23.9169 28.9419 23.926 28.9455L27.4563 30.9559C27.8615 31.1848 28.4692 31.1312 28.8236 30.8343C28.849 30.8128 29.444 30.3191 29.9052 29.8648C30.3411 29.4266 30.8493 28.8417 30.8746 28.8149C31.1875 28.4482 31.2417 27.8794 31.003 27.4627L28.9882 23.9588C28.9683 23.9158 28.9647 23.8014 28.9991 23.7227L30.0426 21.2508C30.0607 21.2061 30.1457 21.1291 30.1873 21.1148L34.1246 20.0667C34.5913 19.9397 34.9638 19.4854 34.9946 18.9738L35 16.1818C34.9855 15.7006 34.6148 15.2392 34.1427 15.1104ZM33.8208 18.9399L29.8817 19.988C29.4603 20.1025 29.0696 20.4673 28.9448 20.8358L27.932 23.2344C27.7385 23.6136 27.7529 24.1573 27.9646 24.5293L29.9793 28.0565C29.9739 28.0619 29.4765 28.6342 29.0732 29.0403C28.65 29.4552 28.0731 29.9346 28.0459 29.9417L24.5156 27.9295C24.322 27.8204 24.0761 27.7596 23.8211 27.7596C23.6637 27.7596 23.4304 27.7829 23.2423 27.8759L20.8242 28.8721C20.4155 28.9991 20.032 29.3962 19.9127 29.8165L18.8275 33.7497C18.8221 33.7623 18.8076 33.8284 18.7931 33.8284H16.12C16.1074 33.8284 16.0965 33.7658 16.0929 33.7587L15.0331 29.8076C14.9209 29.3998 14.5448 28.9956 14.1758 28.8739L11.7414 27.8633C11.3689 27.6809 10.8136 27.6916 10.4374 27.8973L6.87087 29.8845C6.86544 29.8791 6.28669 29.3873 5.87975 28.9973C5.46558 28.5752 4.97184 28.0011 4.9646 27.976L7.00651 24.4757C7.22173 24.1036 7.2362 23.5581 7.05896 23.2201L6.04976 20.8233C5.91593 20.4208 5.51803 20.0452 5.10206 19.9325L1.17921 18.888L1.18463 16.1621L5.10567 15.1104C5.52346 15.0049 5.92678 14.6328 6.05157 14.2644L7.06981 11.864C7.26333 11.4884 7.25067 10.9464 7.03726 10.569L5.02971 7.06332C5.0261 7.04901 5.0279 7.00072 5.02248 7.00072C5.02248 7.00072 5.02248 7.00072 5.02067 7.00072C5.0261 7.00072 5.51442 6.44445 5.94125 6.02949C6.34999 5.6181 6.92151 5.14948 6.95225 5.14232L10.4863 7.15454C10.6762 7.26186 10.9203 7.32446 11.1735 7.32446C11.3327 7.32446 11.5678 7.30121 11.7595 7.20641L14.1794 6.20298C14.6298 6.05989 14.9842 5.59843 15.0873 5.23176L16.1689 1.28961C16.1779 1.2592 16.2123 1.16977 16.2412 1.16977H18.8311C18.8619 1.16977 18.8944 1.26278 18.9035 1.28961L19.9687 5.30151C20.0827 5.71111 20.4607 6.10997 20.8278 6.2316L23.2532 7.23324C23.4774 7.34413 23.7107 7.36738 23.8681 7.36738C24.1231 7.36738 24.3691 7.30657 24.5608 7.19925L28.1255 5.21208C28.1309 5.21745 28.7097 5.70396 29.1184 6.11534C29.5344 6.52673 30.0245 7.0973 30.0318 7.12234L27.9953 10.6263C27.7819 10.9965 27.7656 11.5403 27.9392 11.8801L28.9484 14.2769C29.0823 14.6757 29.4802 15.0496 29.8961 15.1658L33.8226 16.2086L33.8208 18.9399Z" fill="#7B61FF"/>
<path d="M17.4995 11.5492C15.8862 11.5492 14.367 12.1681 13.2204 13.2931C12.0701 14.4235 11.4335 15.9296 11.4317 17.534C11.428 19.1366 12.0556 20.648 13.2023 21.7891C14.3544 22.9249 15.8844 23.5491 17.5085 23.5491C19.1236 23.5491 20.6428 22.9303 21.7859 21.8052C22.9343 20.673 23.5674 19.1652 23.571 17.5626C23.5746 15.9582 22.9452 14.4504 21.8022 13.3199C20.6537 12.177 19.1254 11.5492 17.4995 11.5492ZM20.9539 20.9771C20.0333 21.8821 18.8089 22.3812 17.5085 22.3812C16.1973 22.3812 14.9638 21.8768 14.036 20.9628C13.1137 20.0434 12.6072 18.8271 12.6109 17.534C12.6145 16.2408 13.1263 15.0281 14.0523 14.1195C14.9765 13.2126 16.2009 12.7136 17.4995 12.7136C18.8089 12.7136 20.0406 13.2198 20.9666 14.1427C21.889 15.0549 22.3936 16.2676 22.3918 17.559C22.3881 18.8522 21.8781 20.0649 20.9539 20.9771Z" fill="#7B61FF"/>
</svg>
