<svg width="36" height="37" viewBox="0 0 36 37" fill="none" xmlns="http://www.w3.org/2000/svg">
<mask id="path-1-outside-1" maskUnits="userSpaceOnUse" x="-0.189456" y="-8.74228e-08" width="22" height="37" fill="black">
<rect fill="white" x="-0.189456" y="-8.74228e-08" width="22" height="37"/>
<path d="M1.619 1.08302C1.5561 1.02787 1.48494 0.999243 1.41263 1.00002C1.34033 0.999243 1.26917 1.02787 1.20627 1.08302C1.14328 1.13928 1.09102 1.22029 1.05478 1.31784C1.01854 1.41539 0.999608 1.52603 0.999898 1.63854L1.00023 2L1.82537 2.73999L19.5731 18.4987L1.82537 34.2575L0.999901 35L0.999901 35.3589C0.999611 35.4712 1.01847 35.5817 1.05458 35.6791C1.09069 35.7765 1.14277 35.8575 1.20556 35.9138C1.26835 35.9702 1.33964 35.9999 1.41223 36C1.48482 36.0001 1.55614 35.9706 1.61901 35.9145L20.6049 19.0511C20.6675 18.9949 20.7194 18.9144 20.7555 18.8174C20.7915 18.7205 20.8105 18.6106 20.8105 18.4987C20.8105 18.3869 20.7915 18.277 20.7555 18.18C20.7194 18.0831 20.6675 18.0025 20.6049 17.9464L1.619 1.08302Z"/>
</mask>
<path d="M1.619 1.08302C1.5561 1.02787 1.48494 0.999243 1.41263 1.00002C1.34033 0.999243 1.26917 1.02787 1.20627 1.08302C1.14328 1.13928 1.09102 1.22029 1.05478 1.31784C1.01854 1.41539 0.999608 1.52603 0.999898 1.63854L1.00023 2L1.82537 2.73999L19.5731 18.4987L1.82537 34.2575L0.999901 35L0.999901 35.3589C0.999611 35.4712 1.01847 35.5817 1.05458 35.6791C1.09069 35.7765 1.14277 35.8575 1.20556 35.9138C1.26835 35.9702 1.33964 35.9999 1.41223 36C1.48482 36.0001 1.55614 35.9706 1.61901 35.9145L20.6049 19.0511C20.6675 18.9949 20.7194 18.9144 20.7555 18.8174C20.7915 18.7205 20.8105 18.6106 20.8105 18.4987C20.8105 18.3869 20.7915 18.277 20.7555 18.18C20.7194 18.0831 20.6675 18.0025 20.6049 17.9464L1.619 1.08302Z" fill="#7B61FF"/>
<path d="M1.619 1.08302C1.5561 1.02787 1.48494 0.999243 1.41263 1.00002C1.34033 0.999243 1.26917 1.02787 1.20627 1.08302C1.14328 1.13928 1.09102 1.22029 1.05478 1.31784C1.01854 1.41539 0.999608 1.52603 0.999898 1.63854L1.00023 2L1.82537 2.73999L19.5731 18.4987L1.82537 34.2575L0.999901 35L0.999901 35.3589C0.999611 35.4712 1.01847 35.5817 1.05458 35.6791C1.09069 35.7765 1.14277 35.8575 1.20556 35.9138C1.26835 35.9702 1.33964 35.9999 1.41223 36C1.48482 36.0001 1.55614 35.9706 1.61901 35.9145L20.6049 19.0511C20.6675 18.9949 20.7194 18.9144 20.7555 18.8174C20.7915 18.7205 20.8105 18.6106 20.8105 18.4987C20.8105 18.3869 20.7915 18.277 20.7555 18.18C20.7194 18.0831 20.6675 18.0025 20.6049 17.9464L1.619 1.08302Z" stroke="#7B61FF" stroke-width="0.4" mask="url(#path-1-outside-1)"/>
<mask id="path-2-outside-2" maskUnits="userSpaceOnUse" x="14.6211" y="-8.74228e-08" width="22" height="37" fill="black">
<rect fill="white" x="14.6211" y="-8.74228e-08" width="22" height="37"/>
<path d="M16.4295 1.08302C16.3666 1.02787 16.2955 0.999243 16.2232 1.00002C16.1509 0.999243 16.0797 1.02787 16.0168 1.08302C15.9538 1.13928 15.9016 1.22029 15.8653 1.31784C15.8291 1.41539 15.8102 1.52603 15.8104 1.63854L15.8108 2L16.6359 2.73999L34.3836 18.4987L16.6359 34.2575L15.8104 35L15.8104 35.3589C15.8102 35.4712 15.829 35.5817 15.8651 35.6791C15.9012 35.7765 15.9533 35.8575 16.0161 35.9138C16.0789 35.9702 16.1502 35.9999 16.2228 36C16.2954 36.0001 16.3667 35.9706 16.4296 35.9145L35.4155 19.0511C35.478 18.9949 35.5299 18.9144 35.566 18.8174C35.6021 18.7205 35.6211 18.6106 35.6211 18.4987C35.6211 18.3869 35.6021 18.277 35.566 18.18C35.5299 18.0831 35.478 18.0025 35.4155 17.9464L16.4295 1.08302Z"/>
</mask>
<path d="M16.4295 1.08302C16.3666 1.02787 16.2955 0.999243 16.2232 1.00002C16.1509 0.999243 16.0797 1.02787 16.0168 1.08302C15.9538 1.13928 15.9016 1.22029 15.8653 1.31784C15.8291 1.41539 15.8102 1.52603 15.8104 1.63854L15.8108 2L16.6359 2.73999L34.3836 18.4987L16.6359 34.2575L15.8104 35L15.8104 35.3589C15.8102 35.4712 15.829 35.5817 15.8651 35.6791C15.9012 35.7765 15.9533 35.8575 16.0161 35.9138C16.0789 35.9702 16.1502 35.9999 16.2228 36C16.2954 36.0001 16.3667 35.9706 16.4296 35.9145L35.4155 19.0511C35.478 18.9949 35.5299 18.9144 35.566 18.8174C35.6021 18.7205 35.6211 18.6106 35.6211 18.4987C35.6211 18.3869 35.6021 18.277 35.566 18.18C35.5299 18.0831 35.478 18.0025 35.4155 17.9464L16.4295 1.08302Z" fill="#7B61FF"/>
<path d="M16.4295 1.08302C16.3666 1.02787 16.2955 0.999243 16.2232 1.00002C16.1509 0.999243 16.0797 1.02787 16.0168 1.08302C15.9538 1.13928 15.9016 1.22029 15.8653 1.31784C15.8291 1.41539 15.8102 1.52603 15.8104 1.63854L15.8108 2L16.6359 2.73999L34.3836 18.4987L16.6359 34.2575L15.8104 35L15.8104 35.3589C15.8102 35.4712 15.829 35.5817 15.8651 35.6791C15.9012 35.7765 15.9533 35.8575 16.0161 35.9138C16.0789 35.9702 16.1502 35.9999 16.2228 36C16.2954 36.0001 16.3667 35.9706 16.4296 35.9145L35.4155 19.0511C35.478 18.9949 35.5299 18.9144 35.566 18.8174C35.6021 18.7205 35.6211 18.6106 35.6211 18.4987C35.6211 18.3869 35.6021 18.277 35.566 18.18C35.5299 18.0831 35.478 18.0025 35.4155 17.9464L16.4295 1.08302Z" stroke="#7B61FF" stroke-width="0.4" mask="url(#path-2-outside-2)"/>
</svg>
