<svg width="35" height="39" viewBox="0 0 35 39" fill="none" xmlns="http://www.w3.org/2000/svg">
<path d="M16.668 0.836956V12.5543C16.668 13.0171 17.0406 13.3913 17.5013 13.3913C17.962 13.3913 18.3346 13.0171 18.3346 12.5543V0.836956C18.3346 0.374228 17.962 0 17.5013 0C17.0406 0 16.668 0.374228 16.668 0.836956Z" fill="#7B61FF"/>
<path d="M35 20.9239C35 13.634 30.4305 7.01424 23.6254 4.45532C23.1873 4.28591 22.714 4.51095 22.5529 4.94334C22.3892 5.37572 22.6108 5.85868 23.0388 6.02051C29.1969 8.33668 33.3333 14.3269 33.3333 20.9239C33.3333 29.693 26.2311 36.8261 17.5 36.8261C8.76888 36.8261 1.66667 29.693 1.66667 20.9239C1.66667 14.3269 5.80312 8.33668 11.9612 6.02051C12.3917 5.85868 12.6108 5.37572 12.4471 4.94334C12.286 4.51095 11.8102 4.28591 11.3746 4.45532C4.57201 7.01424 0 13.634 0 20.9239C0 30.6159 7.84995 38.5 17.5 38.5C27.15 38.5 35 30.6159 35 20.9239Z" fill="#7B61FF"/>
</svg>
