<svg width="38" height="36" viewBox="0 0 38 36" fill="none" xmlns="http://www.w3.org/2000/svg">
<path d="M33.9404 4.4587C32.8666 2.98259 31.5956 1.6745 30.166 0.574384C30.0955 0.513647 30.0137 0.468217 29.9254 0.44108C29.8361 0.413638 29.7423 0.405545 29.6498 0.417356C29.5573 0.429167 29.4683 0.4606 29.3883 0.509518C29.3083 0.558428 29.2391 0.623727 29.1847 0.701171C29.1303 0.778607 29.0918 0.866612 29.0715 0.959717C29.0511 1.05282 29.0493 1.14924 29.066 1.24309C29.0827 1.33695 29.1178 1.42645 29.1691 1.50604C29.2198 1.58466 29.2854 1.65206 29.3622 1.70399C31.516 3.36339 33.271 5.52266 34.4886 8.01166C35.7067 10.5016 36.3533 13.2532 36.3773 16.0491C36.4012 18.845 35.8019 21.6082 34.6267 24.1206C33.4516 26.6329 31.7329 28.8254 29.6068 30.525C27.8107 31.9559 25.7621 33.0028 23.5781 33.6059C21.3942 34.2091 19.1177 34.3568 16.879 34.0405C14.6403 33.7243 12.4833 32.9502 10.5314 31.7626C8.57946 30.5749 6.87102 28.997 5.50406 27.1189C2.86132 23.4801 1.63848 18.9306 2.08286 14.3874C2.51965 9.92178 4.53518 5.79004 7.73043 2.79535V8.37413C7.73043 8.55925 7.80087 8.73761 7.92752 8.86975C8.0543 9.00204 8.22719 9.07719 8.4084 9.07719C8.58962 9.07719 8.76251 9.00204 8.88929 8.86975C9.01594 8.73761 9.08638 8.55925 9.08638 8.37413V1.13734C9.08638 0.952216 9.01594 0.773863 8.88929 0.641718C8.76251 0.509429 8.58962 0.434277 8.4084 0.434277L1.20395 0.434277C1.02274 0.434277 0.84985 0.509429 0.723065 0.641718C0.596418 0.773863 0.525977 0.952217 0.525977 1.13734C0.525977 1.32247 0.596418 1.50082 0.723065 1.63297C0.84985 1.76526 1.02274 1.84041 1.20395 1.84041L6.72988 1.84041C3.99673 4.42431 2.0608 7.79909 1.17065 11.5363C0.260421 15.3578 0.486608 19.3779 1.81924 23.0622C3.15187 26.7465 5.52804 29.9209 8.63248 32.1629C11.737 34.405 15.4225 35.6083 19.1991 35.6121C23.2559 35.616 27.2 34.2227 30.4194 31.6492C34.3324 28.5218 36.8986 23.9059 37.5581 18.8113C38.2177 13.7168 36.9173 8.55656 33.9404 4.45875L33.8595 4.51752L33.9404 4.4587Z" fill="#7B61FF" stroke="#7B61FF" stroke-width="0.2"/>
</svg>
