<svg width="18" height="20" viewBox="0 0 18 20" fill="none" xmlns="http://www.w3.org/2000/svg">
<path d="M10.0203 0H7.12257C5.79542 0 4.71428 1.05111 4.71428 2.34139V2.5H1.71429H0.428571C0.191627 2.5 0 2.6863 0 2.91667C0 3.14703 0.191627 3.33333 0.428571 3.33333H1.30643L2.02115 17.2294C2.10013 18.7827 3.41692 20 5.01726 20H12.1256C13.7259 20 15.0414 18.7827 15.1217 17.2294L15.8364 3.33333H16.7143C16.9512 3.33333 17.1429 3.14703 17.1429 2.91667C17.1429 2.6863 16.9512 2.5 16.7143 2.5H15.4286H12.4286V2.34139C12.4286 1.04985 11.3487 0 10.0203 0ZM5.57143 2.34139C5.57143 1.50931 6.26672 0.833333 7.12257 0.833333H10.0203C10.8761 0.833333 11.5714 1.50931 11.5714 2.34139V2.5H5.57143V2.34139ZM14.2659 17.1866C14.2076 18.2968 13.2676 19.1667 12.1256 19.1667H5.01726C3.87397 19.1667 2.93397 18.2968 2.877 17.1866L2.16487 3.33333H5.14286H12H14.978L14.2659 17.1866Z" fill="#F5F5F5"/>
<path d="M8.57115 5.83331C8.33421 5.83331 8.14258 6.01962 8.14258 6.24998V16.25C8.14258 16.4803 8.33421 16.6666 8.57115 16.6666C8.80809 16.6666 8.99972 16.4803 8.99972 16.25V6.24998C8.99972 6.01962 8.80809 5.83331 8.57115 5.83331Z" fill="#F5F5F5"/>
<path d="M5.14244 5.83331C4.90549 5.83331 4.71387 6.01962 4.71387 6.24998V16.25C4.71387 16.4803 4.90549 16.6666 5.14244 16.6666C5.37938 16.6666 5.57101 16.4803 5.57101 16.25V6.24998C5.57101 6.01962 5.37938 5.83331 5.14244 5.83331Z" fill="#F5F5F5"/>
<path d="M11.5713 6.24998V16.25C11.5713 16.4803 11.7629 16.6666 11.9999 16.6666C12.2368 16.6666 12.4284 16.4803 12.4284 16.25V6.24998C12.4284 6.01962 12.2368 5.83331 11.9999 5.83331C11.7629 5.83331 11.5713 6.01962 11.5713 6.24998Z" fill="#F5F5F5"/>
</svg>
